<svg width="35" height="35" viewBox="0 0 35 35" fill="none" xmlns="http://www.w3.org/2000/svg">
<g clip-path="url(#clip0_0_1036)">
<path d="M17.3523 34.7046C26.9357 34.7046 34.7046 26.9357 34.7046 17.3523C34.7046 7.76889 26.9357 0 17.3523 0C7.76889 0 0 7.76889 0 17.3523C0 26.9357 7.76889 34.7046 17.3523 34.7046Z" fill="#EF4361"/>
<path d="M27.0847 11.2089C28.2163 9.39824 27.6667 7.01634 25.856 5.88467C24.0453 4.753 21.6634 5.30267 20.5317 7.11334L23.5172 8.9779L22.8921 9.96946C21.3185 8.87012 19.4001 8.22345 17.3415 8.22345C15.2829 8.22345 13.3753 8.87012 11.8125 9.95868L11.1982 8.9779L14.1836 7.11334C13.0412 5.30267 10.6593 4.753 8.84859 5.88467C7.03792 7.01634 6.49903 9.39824 7.6307 11.2089L10.6162 9.34435L11.2628 10.3682C9.06415 12.1466 7.65225 14.8626 7.65225 17.9127C7.65225 21.5125 9.61382 24.6596 12.5346 26.3302L11.4568 29.4127H13.3753L14.1405 27.0631C15.1428 27.4188 16.2206 27.6128 17.3415 27.6128C18.484 27.6128 19.5833 27.408 20.5964 27.0523L21.3616 29.4234H23.2046L22.1915 26.3194H22.1808C25.0692 24.6381 27.02 21.5125 27.02 17.9343C27.02 14.8949 25.6189 12.1897 23.431 10.4114L24.0884 9.3659L27.0847 11.2089Z" fill="#FCC16A"/>
<path d="M17.3523 26.6966C22.2035 26.6966 26.1362 22.7639 26.1362 17.9127C26.1362 13.0615 22.2035 9.12878 17.3523 9.12878C12.5011 9.12878 8.56837 13.0615 8.56837 17.9127C8.56837 22.7639 12.5011 26.6966 17.3523 26.6966Z" fill="#E6E7E8"/>
<path d="M17.7511 9.87244H16.9643V11.931H17.7511V9.87244Z" fill="#808285"/>
<path d="M17.7511 23.7327H16.9643V25.7912H17.7511V23.7327Z" fill="#808285"/>
<path d="M25.3169 18.2293V17.4425H23.2583V18.2293H25.3169Z" fill="#808285"/>
<path d="M11.456 18.2299V17.4431H9.3974V18.2299H11.456Z" fill="#808285"/>
<path d="M19.8204 14.0651C19.7342 14.0004 19.6049 14.022 19.5402 14.1082L17.5679 16.8457C17.5032 16.8242 17.4277 16.8026 17.3415 16.8026C16.9535 16.8026 16.6302 17.126 16.6302 17.514C16.6302 17.7511 16.7487 17.9666 16.932 18.096C16.9212 18.1283 16.9104 18.1606 16.9104 18.193L16.6517 20.6826C16.6302 20.8982 16.7919 21.0922 17.0074 21.1138C17.223 21.1353 17.417 20.9736 17.4385 20.7581L17.6972 18.2684C17.6972 18.2253 17.6972 18.1714 17.6864 18.1283C17.9127 18.0097 18.0636 17.7726 18.0636 17.5032C18.0636 17.3307 17.999 17.1799 17.902 17.0505L19.8635 14.3237C19.9282 14.2483 19.9174 14.1297 19.8204 14.0651Z" fill="#808285"/>
</g>
<defs>
<clipPath id="clip0_0_1036">
<rect width="34.7154" height="34.7154" fill="white"/>
</clipPath>
</defs>
</svg>
