<svg width="1877" height="834" viewBox="0 0 1877 834" fill="none" xmlns="http://www.w3.org/2000/svg">
<path d="M655.345 30.1267C657.217 27.3819 659.61 25.1113 662.361 23.4704C665.111 21.8295 668.154 20.8571 671.28 20.6197C669.713 25.2649 669.579 30.2664 672.195 34.7091C677.243 43.2731 687.958 40.6117 690.645 31.4469C692.679 24.5035 689.41 18.7755 684.465 15.3038C686.736 13.2277 689.386 11.7015 692.237 10.8261C695.089 9.95066 698.078 9.74596 701.008 10.2255C706.222 11.0847 707.194 2.20632 701.987 1.35411C697.202 0.557657 692.31 1.1099 687.775 2.95842C683.241 4.80693 679.215 7.89036 676.078 11.9159C665.67 10.3093 655.006 15.7299 648.762 24.8109C645.596 29.4072 652.166 34.737 655.345 30.1267ZM679.514 22.2193C680.774 22.8686 681.836 23.902 682.571 25.1951C683.448 26.8436 683.262 30.3293 681.292 31.0488C678.65 32.0127 678.24 27.151 678.541 25.4605C678.745 24.3413 679.071 23.2531 679.514 22.2193Z" fill="#E57E5E"/>
<path d="M560.539 48.639C559.033 48.6335 557.563 48.1409 556.313 47.2234C555.063 46.3059 554.091 45.0046 553.518 43.4839C552.945 41.9632 552.798 40.2914 553.095 38.6794C553.392 37.0674 554.119 35.5876 555.186 34.4269C556.253 33.2662 557.61 32.4766 559.087 32.1578C560.565 31.8391 562.095 32.0055 563.486 32.636C564.877 33.2665 566.065 34.3328 566.901 35.7003C567.737 37.0678 568.183 38.6752 568.183 40.3195C568.183 41.4141 567.984 42.4978 567.599 43.5086C567.215 44.5194 566.651 45.4374 565.941 46.2101C565.231 46.9829 564.388 47.5951 563.461 48.0119C562.534 48.4287 561.541 48.6418 560.539 48.639ZM560.539 33.9698C559.382 33.9684 558.251 34.3417 557.289 35.0424C556.326 35.7431 555.576 36.7398 555.132 37.9063C554.689 39.0728 554.572 40.3567 554.797 41.5957C555.022 42.8346 555.578 43.9729 556.396 44.8665C557.213 45.7601 558.255 46.3689 559.389 46.6158C560.524 46.8627 561.7 46.7367 562.769 46.2537C563.837 45.7706 564.751 44.9523 565.394 43.9022C566.036 42.8521 566.379 41.6175 566.379 40.3544C566.383 39.5139 566.234 38.6809 565.942 37.9031C565.651 37.1253 565.221 36.418 564.679 35.8218C564.136 35.2255 563.491 34.7519 562.781 34.4281C562.07 34.1043 561.309 33.9367 560.539 33.9349V33.9698Z" fill="#070706"/>
<path d="M1527.7 0H334V834H1527.7V0Z" fill="#F8D1E0"/>
<path opacity="0.5" d="M298.007 120.49C324.258 135.493 347.002 155.928 364.719 180.428C381.887 204.206 393.779 237.992 376.867 261.953C361.852 283.531 331.965 286.739 305.891 290.082C269.379 294.823 231.276 304.97 206.089 331.844C180.902 358.718 175.575 406.583 203.542 430.77C227.799 451.683 263.881 446.754 295.757 442.89C327.634 439.026 365.668 439.626 383.878 465.815C393.538 479.763 394.991 498.114 391.72 514.769C383.902 554.748 343.162 589.385 303.727 579.192C291.496 576.015 279.427 567.64 276.799 555.22C272.407 534.508 296.862 518.08 318.069 518.544C344.541 519.173 369.128 535.707 383.903 557.79C398.679 579.873 404.723 606.776 406.323 633.28C409.485 688.802 394.614 743.859 363.928 790.239" stroke="white" stroke-width="4.63276" stroke-linecap="round" stroke-linejoin="round" stroke-dasharray="4.59 12.28"/>
<path opacity="0.5" d="M1503.31 40.4313C1474.48 60.5815 1450.29 86.6545 1432.35 116.907C1414.97 146.264 1404.76 186.658 1426.88 212.632C1446.55 236.044 1481.52 236.607 1512.07 237.728C1554.87 239.367 1600.08 247.1 1632.1 275.575C1664.11 304.049 1675.33 358.935 1645.49 389.907C1619.59 416.694 1577.27 414.792 1539.94 413.679C1502.6 412.567 1458.61 417.275 1440.27 449.537C1430.56 466.713 1430.81 488.125 1436.36 507.074C1449.63 552.563 1500.48 588.39 1545.09 572.419C1558.93 567.448 1572.02 556.472 1573.76 541.807C1576.66 517.35 1546.59 500.899 1522.08 503.675C1491.48 507.198 1464.74 528.946 1449.95 556.088C1435.17 583.229 1431 615.033 1431.95 645.905C1434.14 710.558 1457.18 772.77 1497.62 823.26" stroke="white" stroke-width="4.63276" stroke-linecap="round" stroke-linejoin="round" stroke-dasharray="4.59 12.28"/>
<path d="M1443 70H418C406.954 70 398 78.9543 398 90V744C398 755.046 406.954 764 418 764H1443C1454.05 764 1463 755.046 1463 744V90C1463 78.9543 1454.05 70 1443 70Z" fill="#F7F9FE"/>
</svg>
