<svg width="157" height="43" viewBox="0 0 157 43" fill="none" xmlns="http://www.w3.org/2000/svg">
<path d="M13.451 6.04293H13.3988L13.3469 6.04836C11.1361 6.27968 8.66642 6.64411 6.52732 7.39407C4.41178 8.13577 2.43889 9.31782 1.46959 11.3078C0.923565 12.3482 0.848265 13.5308 1.2722 14.6238L1.30035 14.6963L1.3394 14.7637C2.00506 15.9119 3.04047 16.8562 4.29827 17.5145L9.33667 20.6885C8.36745 20.9025 7.40265 21.1786 6.52136 21.5415C4.86322 22.2243 3.2761 23.3093 2.72137 25.094L2.70978 25.1313L2.70113 25.1694C2.4699 26.1876 2.56256 27.2351 2.96297 28.2072C3.36198 29.1759 4.0464 30.0226 4.92654 30.6845L4.92649 30.6846L4.93775 30.6928C5.71813 31.2628 6.55197 31.7786 7.43026 32.2364C6.47132 32.6989 5.65974 33.3808 5.11253 34.2309L5.10399 34.2441L5.09588 34.2576C4.56092 35.1493 4.34448 36.1668 4.49717 37.1818C4.64915 38.192 5.15357 39.1152 5.90867 39.853C7.04907 40.9864 8.62246 41.5132 10.1858 41.766C11.7605 42.0207 13.4607 42.0175 14.9634 41.9841H14.9635C55.4019 41.081 95.8341 40.8762 136.26 41.3697C137.992 41.3919 139.9 41.3849 141.697 41.1113C143.491 40.838 145.268 40.2865 146.683 39.1504L146.693 39.1419L146.704 39.1332C147.846 38.1638 148.608 36.8903 148.814 35.4841C149.021 34.0734 148.649 32.6656 147.794 31.4782C147.667 31.3002 147.517 31.1157 147.39 30.9606C147.357 30.9198 147.325 30.881 147.296 30.8449C147.139 30.6496 147.026 30.4987 146.948 30.3645C146.877 30.2418 146.865 30.1814 146.864 30.1664C146.864 30.1648 146.865 30.1627 146.866 30.1599C146.868 30.1565 146.87 30.1518 146.874 30.146C146.877 30.14 146.881 30.1326 146.887 30.124C146.943 30.0416 147.114 29.9126 147.752 29.7848C147.895 29.7564 148.044 29.7305 148.207 29.7024C148.366 29.675 148.541 29.6452 148.715 29.6116C149.058 29.5451 149.449 29.4544 149.824 29.2999C151.204 28.7364 151.804 27.5695 151.849 26.3732C151.891 25.2382 151.449 24.0663 150.797 23.1776C150.515 22.7932 150.202 22.4176 149.912 22.0685L149.874 22.0225C149.564 21.6508 149.28 21.307 149.032 20.9623C148.529 20.2657 148.272 19.6962 148.269 19.1514C148.292 18.2573 148.993 17.4605 150.367 16.4299C150.663 16.2073 150.972 15.9868 151.293 15.7572L151.386 15.6908C151.737 15.4401 152.101 15.1789 152.454 14.9085C153.153 14.3735 153.86 13.7654 154.404 13.0488C155.463 11.6767 156.029 10.3503 155.999 9.07471C155.968 7.76067 155.31 6.70232 154.351 5.88513C153.411 5.08387 152.141 4.47373 150.728 3.99567C149.305 3.51398 147.674 3.14566 145.964 2.86065C140.698 1.98285 134.379 1.85738 130.592 1.78216C129.499 1.76046 128.617 1.74295 128.031 1.71275C89.8201 -0.281974 51.4862 2.14899 13.5294 6.04293H13.451Z" fill="#CD3F97" stroke="#AA1070" stroke-width="2"/>
</svg>
